<svg width="744" height="595" viewBox="0 0 744 595" fill="none" xmlns="http://www.w3.org/2000/svg">
<rect width="744" height="595" fill="#FEFEFE"/>
<path d="M27.5 24C66.77 24 106.04 24 146.5 24C146.5 63.27 146.5 102.54 146.5 143C107.23 143 67.96 143 27.5 143C27.5 103.73 27.5 64.46 27.5 24Z" fill="#8C6D63"/>
<path d="M170.5 24C209.44 24 248.38 24 288.5 24C288.5 63.27 288.5 102.54 288.5 143C249.56 143 210.62 143 170.5 143C170.5 103.73 170.5 64.46 170.5 24Z" fill="#BFAB92"/>
<path d="M312.5 24C351.44 24 390.38 24 430.5 24C430.5 63.27 430.5 102.54 430.5 143C391.56 143 352.62 143 312.5 143C312.5 103.73 312.5 64.46 312.5 24Z" fill="#C1BAAD"/>
<path d="M454.5 24C493.77 24 533.04 24 573.5 24C573.5 63.27 573.5 102.54 573.5 143C534.23 143 494.96 143 454.5 143C454.5 103.73 454.5 64.46 454.5 24Z" fill="#B5AB91"/>
<path d="M597.5 24C636.77 24 676.04 24 716.5 24C716.5 63.27 716.5 102.54 716.5 143C677.23 143 637.96 143 597.5 143C597.5 103.73 597.5 64.46 597.5 24Z" fill="#96968C"/>
<path d="M28 167C66.94 167 105.88 167 146 167C146 205.94 146 244.88 146 285C107.06 285 68.12 285 28 285C28 246.06 28 207.12 28 167Z" fill="#BAB792"/>
<path d="M170 167C208.94 167 247.88 167 288 167C288 205.94 288 244.88 288 285C249.06 285 210.12 285 170 285C170 246.06 170 207.12 170 167Z" fill="#686964"/>
<path d="M312 167C350.94 167 389.88 167 430 167C430 205.94 430 244.88 430 285C391.06 285 352.12 285 312 285C312 246.06 312 207.12 312 167Z" fill="#E5DCD5"/>
<path d="M454 167C493.27 167 532.54 167 573 167C573 205.94 573 244.88 573 285C533.73 285 494.46 285 454 285C454 246.06 454 207.12 454 167Z" fill="#D3C6B0"/>
<path d="M597 167C636.27 167 675.54 167 716 167C716 205.94 716 244.88 716 285C676.73 285 637.46 285 597 285C597 246.06 597 207.12 597 167Z" fill="#EFE8CE"/>
<path d="M27.5 309C66.77 309 106.04 309 146.5 309C146.5 348.27 146.5 387.54 146.5 428C107.23 428 67.96 428 27.5 428C27.5 388.73 27.5 349.46 27.5 309Z" fill="#E9DFD0"/>
<path d="M170.5 309C209.44 309 248.38 309 288.5 309C288.5 348.27 288.5 387.54 288.5 428C249.56 428 210.62 428 170.5 428C170.5 388.73 170.5 349.46 170.5 309Z" fill="#B6AEA3"/>
<path d="M312.5 309C351.44 309 390.38 309 430.5 309C430.5 348.27 430.5 387.54 430.5 428C391.56 428 352.62 428 312.5 428C312.5 388.73 312.5 349.46 312.5 309Z" fill="#A2937D"/>
<path d="M454.5 309C493.77 309 533.04 309 573.5 309C573.5 348.27 573.5 387.54 573.5 428C534.23 428 494.96 428 454.5 428C454.5 388.73 454.5 349.46 454.5 309Z" fill="#9FA197"/>
<path d="M597.5 309C636.77 309 676.04 309 716.5 309C716.5 348.27 716.5 387.54 716.5 428C677.23 428 637.96 428 597.5 428C597.5 388.73 597.5 349.46 597.5 309Z" fill="#88766B"/>
<path d="M27.5 452C66.77 452 106.04 452 146.5 452C146.5 491.27 146.5 530.54 146.5 571C107.23 571 67.96 571 27.5 571C27.5 531.73 27.5 492.46 27.5 452Z" fill="#B78F71"/>
<path d="M170.5 452C209.44 452 248.38 452 288.5 452C288.5 491.27 288.5 530.54 288.5 571C249.56 571 210.62 571 170.5 571C170.5 531.73 170.5 492.46 170.5 452Z" fill="#ACAEA3"/>
<path d="M312.5 452C351.44 452 390.38 452 430.5 452C430.5 491.27 430.5 530.54 430.5 571C391.56 571 352.62 571 312.5 571C312.5 531.73 312.5 492.46 312.5 452Z" fill="#C08A6D"/>
<path d="M454.5 452C493.77 452 533.04 452 573.5 452C573.5 491.27 573.5 530.54 573.5 571C534.23 571 494.96 571 454.5 571C454.5 531.73 454.5 492.46 454.5 452Z" fill="#899283"/>
<path d="M597.5 452C636.77 452 676.04 452 716.5 452C716.5 491.27 716.5 530.54 716.5 571C677.23 571 637.96 571 597.5 571C597.5 531.73 597.5 492.46 597.5 452Z" fill="#5E4D39"/>
</svg>
